<?xml version="1.0" encoding="UTF-8"?>
<!-- Generated by Pixelmator Pro 3.4.3 -->
<svg width="200" height="200" viewBox="0 0 200 200" xmlns="http://www.w3.org/2000/svg">
    <path id="path1" fill="#ffffff" stroke="none" d="M 75 25 L 75 62.5 L 125 62.5 C 131.903564 62.5 137.5 68.096436 137.5 75 L 137.5 125 L 175 125 L 175 25 L 75 25 Z M 62.5 62.5 L 62.5 25 C 62.5 18.096436 68.096443 12.5 75 12.5 L 175 12.5 C 181.903564 12.5 187.5 18.096436 187.5 25 L 187.5 125 C 187.5 131.903564 181.903564 137.5 175 137.5 L 137.5 137.5 L 137.5 175 C 137.5 181.903564 131.903564 187.5 125 187.5 L 25 187.5 C 18.096441 187.5 12.5 181.903564 12.5 175 L 12.5 75 C 12.5 68.096436 18.096441 62.5 25 62.5 L 62.5 62.5 Z M 125 137.5 L 75 137.5 C 68.096443 137.5 62.5 131.903564 62.5 125 L 62.5 75 L 25 75 L 25 175 L 125 175 L 125 137.5 Z M 125 125 L 125 75 L 75 75 L 75 125 L 125 125 Z"/>
</svg>
