<?xml version="1.0" encoding="UTF-8"?>
<!-- Generated by Pixelmator Pro 3.4.3 -->
<svg width="200" height="200" viewBox="0 0 200 200" xmlns="http://www.w3.org/2000/svg">
    <path id="path1" fill="#ffffff" stroke="none" d="M 103.593758 111.757813 C 87.460938 116.152344 69.824219 129.980469 69.824219 143.457031 L 69.824219 160.703125 L 24.277344 160.703125 C 21.484375 160.703125 19.21875 158.4375 19.21875 155.644531 L 19.21875 143.828125 C 19.21875 121.406242 63.828121 110.097656 86.171875 110.097656 C 91.132813 110.078117 97.1875 110.644531 103.593758 111.757813 Z M 69.824219 99.960938 C 53.046875 99.960938 39.453125 86.367188 39.453125 69.589844 C 39.453125 52.8125 53.046875 39.21875 69.824219 39.21875 C 86.601563 39.21875 100.195313 52.8125 100.195313 69.589844 C 100.195313 86.367188 86.601563 99.960938 69.824219 99.960938 Z M 136.796875 110.078117 C 149.863281 109.746101 160.820313 99.003906 161.425781 85.957031 C 162.070313 71.699219 150.859375 59.765625 136.660156 59.492188 L 135.644531 59.492188 C 121.679688 59.765625 110.566399 71.328125 110.839844 85.292969 C 111.113289 99.257813 122.675774 110.429695 136.796875 110.078117 Z M 135.625 120.214844 C 120.42968 120.214844 90.078125 129.257813 90.078125 147.207031 L 90.078125 155.644531 C 90.078125 158.4375 92.34375 160.703125 95.136719 160.703125 L 176.113281 160.703125 C 178.90625 160.703125 181.171875 158.4375 181.171875 155.644531 L 181.171875 147.207031 C 181.171875 129.238281 150.820313 120.214844 135.625 120.214844 Z"/>
</svg>
