<?xml version="1.0" encoding="UTF-8"?>
<!-- Generated by Pixelmator Pro 3.4.3 -->
<svg width="200" height="200" viewBox="0 0 200 200" xmlns="http://www.w3.org/2000/svg">
    <path id="path1" fill="#ff634d" stroke="none" d="M 90.453468 24.500397 C 90.453468 17.860687 96.154411 12.48114 103.184441 12.48114 C 110.215675 12.48114 115.913414 17.860687 115.913414 24.500397 L 115.913414 91.360458 C 115.913414 97.998161 110.215675 103.378716 103.184441 103.378716 C 96.154205 103.378716 90.453468 97.998161 90.453468 91.360458 L 90.453468 24.500397 L 90.453468 24.500397 Z M 100.000999 187.518661 C 56.060188 187.518661 20.438543 153.882874 20.438543 112.393593 C 20.438543 80.451851 41.590401 53.237305 71.35862 42.370071 L 71.35862 69.113739 C 56.088974 78.143623 45.898682 94.127182 45.898682 112.393593 C 45.898682 140.607468 70.122856 163.477966 100.001205 163.477966 C 129.881744 163.477966 154.102722 140.607468 154.102722 112.393593 C 154.102722 96.796173 146.678955 82.85582 135.008865 73.484383 L 135.008865 45.010681 C 161.371582 57.248383 179.561661 82.783676 179.561661 112.395798 C 179.563446 153.882874 143.941803 187.518661 100.000999 187.518661 L 100.000999 187.518661 Z"/>
</svg>
